<svg width="500" height="500" viewBox="0 0 500 500" fill="none" xmlns="http://www.w3.org/2000/svg">
<rect width="500" height="500" fill="#0004FF"/>
<g clip-path="url(#clip0_690_553)">
<path fill-rule="evenodd" clip-rule="evenodd" d="M231.68 88.5C231.68 84.4931 231.68 82.4896 232.924 81.2448C234.169 80 236.173 80 240.18 80H259.82C263.827 80 265.831 80 267.076 81.2448C268.32 82.4896 268.32 84.4931 268.32 88.5V102.631L304.83 117.629L341.251 132.84L351.244 122.848C354.077 120.015 355.494 118.598 357.254 118.598C359.014 118.598 360.431 120.015 363.264 122.848L377.152 136.736C379.986 139.57 381.402 140.986 381.402 142.747C381.402 144.507 379.986 145.924 377.152 148.757L367.16 158.749L382.371 195.17L397.369 231.68H411.5C415.507 231.68 417.51 231.68 418.755 232.925C420 234.17 420 236.173 420 240.18V259.821C420 263.828 420 265.831 418.755 267.076C417.51 268.321 415.507 268.321 411.5 268.321H397.369L382.371 304.831L367.16 341.252L377.152 351.244C379.986 354.077 381.402 355.494 381.402 357.254C381.402 359.014 379.985 360.431 377.152 363.264L363.264 377.153C360.431 379.986 359.014 381.403 357.254 381.403C355.493 381.403 354.077 379.986 351.243 377.153L341.251 367.161L304.83 382.372L268.32 397.37V411.5C268.32 415.507 268.32 417.51 267.076 418.755C265.831 420 263.827 420 259.82 420H240.18C236.173 420 234.169 420 232.924 418.755C231.68 417.51 231.68 415.507 231.68 411.5V397.37L195.17 382.372L158.749 367.161L148.757 377.153C145.924 379.986 144.507 381.403 142.746 381.403C140.986 381.403 139.569 379.986 136.736 377.153L122.848 363.264C120.015 360.431 118.598 359.015 118.598 357.254C118.598 355.494 120.015 354.077 122.848 351.244L132.84 341.252L117.628 304.831L102.631 268.321H88.5C84.4931 268.321 82.4896 268.321 81.2448 267.076C80 265.831 80 263.828 80 259.821V240.18C80 236.173 80 234.17 81.2448 232.925C82.4896 231.68 84.4931 231.68 88.5 231.68H102.631L117.628 195.17L132.84 158.749L122.848 148.757C120.014 145.924 118.598 144.507 118.598 142.747C118.598 140.986 120.014 139.57 122.848 136.736L136.736 122.848C139.569 120.015 140.986 118.598 142.746 118.598C144.507 118.598 145.923 120.015 148.757 122.848L158.749 132.84L195.17 117.629L231.68 102.631V88.5ZM231.68 143.983L209.808 152.967L187.989 162.08L231.68 205.771V143.983ZM162.08 187.989L152.967 209.808L143.982 231.68H205.771L162.08 187.989ZM143.982 268.321L152.967 290.193L162.08 312.012L205.771 268.321H143.982ZM187.989 337.921L209.806 347.033L231.68 356.018V294.23L187.989 337.921ZM268.32 356.018L290.193 347.033L312.011 337.921L268.32 294.23V356.018ZM337.92 312.012L347.032 290.194L356.018 268.321H294.229L337.92 312.012ZM356.018 231.68L347.032 209.807L337.92 187.989L294.229 231.68H356.018ZM312.012 162.08L290.192 152.967L268.32 143.983V205.771L312.012 162.08Z" fill="white"/>
</g>
<defs>
<clipPath id="clip0_690_553">
<rect width="340" height="340" fill="white" transform="translate(80 80)"/>
</clipPath>
</defs>
</svg>
